<svg width="46" height="59" viewBox="0 0 46 59" fill="none" xmlns="http://www.w3.org/2000/svg">
<path d="M22.8922 5.98176C22.5953 5.98176 22.3087 5.93649 22.039 5.85254V9.91924H23.7453V5.85254C23.4756 5.9366 23.1891 5.98176 22.8922 5.98176Z" fill="#135693"/>
<path d="M22.8946 6.09642C24.5515 6.09642 25.8946 4.75749 25.8946 3.10583C25.8946 1.45417 24.5515 0.115234 22.8946 0.115234C21.2378 0.115234 19.8947 1.45417 19.8947 3.10583C19.8947 4.75749 21.2378 6.09642 22.8946 6.09642Z" fill="#6BC1DD"/>
<g opacity="0.15">
<path opacity="0.15" d="M22.4198 3.10583C22.4198 1.90402 23.1313 0.868286 24.1573 0.392908C23.7733 0.21511 23.3458 0.115234 22.8946 0.115234C21.2378 0.115234 19.8947 1.45423 19.8947 3.10583C19.8947 4.75742 21.2378 6.0963 22.8946 6.0963C23.3458 6.0963 23.7733 5.99643 24.1573 5.81863C23.1313 5.34337 22.4198 4.30764 22.4198 3.10583Z" fill="#440075"/>
</g>
<path d="M42.0162 14.5884H40.2472V30.8572H42.0162C42.986 30.8572 43.7795 30.0663 43.7795 29.0995V16.3461C43.7795 15.3794 42.986 14.5884 42.0162 14.5884Z" fill="#9EA7AF"/>
<path d="M5.54181 14.5879H3.65604C2.68622 14.5879 1.89282 15.3789 1.89282 16.3456V29.0989C1.89282 30.0657 2.68622 30.8566 3.65604 30.8566H5.54169L5.54181 14.5879Z" fill="#9EA7AF"/>
<path d="M6.74418 52.1412H4.32096C3.49366 52.1412 2.72514 51.8906 2.08749 51.4614V57.1855C2.08749 57.8301 2.6165 58.3574 3.26305 58.3574H6.74418V52.1412Z" fill="#C5CCD3"/>
<path d="M41.4679 52.141H39.0448V58.3573H42.5259C43.1725 58.3573 43.7015 57.8299 43.7015 57.1854V51.4614C43.0637 51.8904 42.2952 52.141 41.4679 52.141Z" fill="#C5CCD3"/>
<path opacity="0.15" d="M4.55613 57.1856V52.1412H4.32096C3.49366 52.1412 2.72514 51.8906 2.08749 51.4614V57.1855C2.08749 57.8301 2.6165 58.3574 3.26305 58.3574H5.73169C5.08515 58.3575 4.55613 57.8302 4.55613 57.1856Z" fill="#440075"/>
<path d="M6.74424 43.1821H4.32101C2.11368 43.1821 0.324219 44.966 0.324219 47.1665V48.3384C0.324219 50.5388 2.11379 52.3226 4.32101 52.3226H6.74412L6.74424 43.1821Z" fill="#E6E9ED"/>
<path d="M41.4679 43.1816H39.0448V52.3222H41.4679C43.6754 52.3222 45.4647 50.5383 45.4647 48.338V47.1661C45.4647 44.9654 43.6753 43.1816 41.4679 43.1816Z" fill="#E6E9ED"/>
<g opacity="0.15">
<path opacity="0.15" d="M3.14557 48.3379V47.166C3.14557 44.9654 4.93503 43.1816 7.14236 43.1816H4.32101C2.11368 43.1816 0.324219 44.9655 0.324219 47.166V48.3379C0.324219 50.5383 2.11379 52.3221 4.32101 52.3221H7.14236C4.93492 52.3221 3.14557 50.5383 3.14557 48.3379Z" fill="#440075"/>
</g>
<path d="M26.797 35.3853H18.9931V38.2924H26.797V35.3853Z" fill="#9EA7AF"/>
<path opacity="0.15" d="M21.8368 35.3853H18.9931V38.2924H21.8368V35.3853Z" fill="#440075"/>
<path d="M32.0742 41.0663V39.1751C32.0742 38.6193 31.618 38.1646 31.0605 38.1646H14.3863C13.8286 38.1646 13.3724 38.6193 13.3724 39.1751V41.0663H32.0742Z" fill="#C5CCD3"/>
<path opacity="0.15" d="M16.8882 41.0663V39.1751C16.8882 38.6193 17.3444 38.1646 17.9022 38.1646H14.3863C13.8286 38.1646 13.3724 38.6193 13.3724 39.1751V41.0663H16.8882Z" fill="#440075"/>
<path d="M37.3953 40.8677H8.39324C7.42343 40.8677 6.62991 41.6587 6.62991 42.6255V58.3579H39.1586V42.6255C39.1586 41.6587 38.3652 40.8677 37.3953 40.8677Z" fill="#9EA7AF"/>
<g opacity="0.15">
<path opacity="0.15" d="M11.7603 40.8677H8.39324C7.42343 40.8677 6.62991 41.6587 6.62991 42.6255V58.3579H9.99693V42.6255C9.99693 41.6587 10.7905 40.8677 11.7603 40.8677Z" fill="#440075"/>
</g>
<path d="M40.3612 33.7615C40.3612 34.7283 39.5677 35.5192 38.598 35.5192H7.1908C6.2211 35.5192 5.42758 34.7283 5.42758 33.7615V11.5634C5.42758 10.5966 6.2211 9.80566 7.1908 9.80566H38.598C39.5677 9.80566 40.3612 10.5966 40.3612 11.5634V33.7615Z" fill="#C5CCD3"/>
<g opacity="0.15">
<path opacity="0.15" d="M8.78799 33.7615V11.5634C8.78799 10.5966 9.5815 9.80566 10.5513 9.80566H7.1908C6.2211 9.80566 5.42758 10.5966 5.42758 11.5634V33.7616C5.42758 34.7284 6.2211 35.5193 7.1908 35.5193H10.5513C9.5815 35.5192 8.78799 34.7283 8.78799 33.7615Z" fill="#440075"/>
</g>
<path d="M36.1885 22.6953C36.1885 26.0487 33.4617 28.7666 30.0981 28.7666H15.6907C12.3269 28.7666 9.60016 26.0485 9.60016 22.6953C9.60016 19.3421 12.3269 16.624 15.6907 16.624H30.0981C33.4617 16.624 36.1885 19.3421 36.1885 22.6953Z" fill="#135693"/>
<g opacity="0.15">
<path opacity="0.15" d="M13.0199 22.6953C13.0199 19.3421 15.7467 16.624 19.1105 16.624H15.6907C12.3269 16.624 9.60016 19.3422 9.60016 22.6953C9.60016 26.0487 12.3269 28.7666 15.6907 28.7666H19.1105C15.7467 28.7666 13.0199 26.0485 13.0199 22.6953Z" fill="#440075"/>
</g>
<path d="M15.0825 25.0685C16.3904 25.0685 17.4507 24.0073 17.4507 22.6983C17.4507 21.3893 16.3904 20.3281 15.0825 20.3281C13.7746 20.3281 12.7143 21.3893 12.7143 22.6983C12.7143 24.0073 13.7746 25.0685 15.0825 25.0685Z" fill="#6BC1DD"/>
<path d="M30.7521 25.067C32.06 25.067 33.1203 24.0059 33.1203 22.6968C33.1203 21.3878 32.06 20.3267 30.7521 20.3267C29.4442 20.3267 28.3839 21.3878 28.3839 22.6968C28.3839 24.0059 29.4442 25.067 30.7521 25.067Z" fill="#6BC1DD"/>
<path d="M33.401 58.3569V48.1406C33.401 47.4961 32.872 46.9688 32.2254 46.9688H13.564C12.9174 46.9688 12.3884 47.4961 12.3884 48.1406V58.3569H33.401Z" fill="#135693"/>
<path d="M25.0105 58.3566V55.0616C25.0105 54.8682 24.8518 54.71 24.6579 54.71H21.1313C20.9374 54.71 20.7787 54.8682 20.7787 55.0616V58.3566H25.0105Z" fill="#FFC502"/>
<path d="M17.9573 50.6365H15.2536C14.7808 50.6365 14.3977 50.2546 14.3977 49.7833C14.3977 49.312 14.7808 48.9302 15.2536 48.9302H17.9573C18.43 48.9302 18.8131 49.312 18.8131 49.7833C18.8131 50.2545 18.43 50.6365 17.9573 50.6365Z" fill="#C5CCD3"/>
<path d="M16.7819 52.7175H15.2536C14.7808 52.7175 14.3978 52.3357 14.3978 51.8644C14.3978 51.3931 14.7808 51.0112 15.2536 51.0112H16.7819C17.2546 51.0112 17.6377 51.3931 17.6377 51.8644C17.6377 52.3357 17.2545 52.7175 16.7819 52.7175Z" fill="#C5CCD3"/>
<path d="M17.9573 54.802H15.2536C14.7808 54.802 14.3978 54.42 14.3978 53.9489C14.3978 53.4776 14.7808 53.0957 15.2536 53.0957H17.9573C18.43 53.0957 18.8131 53.4776 18.8131 53.9489C18.8131 54.4201 18.43 54.802 17.9573 54.802Z" fill="#C5CCD3"/>
<path d="M16.4291 56.8836H15.2536C14.7808 56.8836 14.3978 56.5017 14.3978 56.0304C14.3978 55.5592 14.7808 55.1772 15.2536 55.1772H16.4291C16.9019 55.1772 17.285 55.5592 17.285 56.0304C17.285 56.5017 16.9018 56.8836 16.4291 56.8836Z" fill="#C5CCD3"/>
<path d="M30.1473 56.0281H28.0605C27.5653 56.0281 27.1641 55.6281 27.1641 55.1344C27.1641 54.6407 27.5654 54.2407 28.0605 54.2407H30.1473C30.6424 54.2407 31.0438 54.6408 31.0438 55.1344C31.0438 55.6282 30.6424 56.0281 30.1473 56.0281Z" fill="#E6E9ED"/>
<path d="M29.1045 52.9311C30.1444 52.9311 30.9873 52.0908 30.9873 51.0542C30.9873 50.0176 30.1444 49.1772 29.1045 49.1772C28.0647 49.1772 27.2217 50.0176 27.2217 51.0542C27.2217 52.0908 28.0647 52.9311 29.1045 52.9311Z" fill="#5DC647"/>
<path d="M25.0628 52.0365C25.0628 52.2347 24.9002 52.3967 24.7015 52.3967H21.0879C20.8893 52.3967 20.7267 52.2347 20.7267 52.0365V50.0727C20.7267 49.8745 20.8893 49.7124 21.0879 49.7124H24.7015C24.9002 49.7124 25.0628 49.8745 25.0628 50.0727V52.0365Z" fill="#6BC1DD"/>
</svg>
